<svg width="42" height="43" viewBox="0 0 42 43" fill="none" xmlns="http://www.w3.org/2000/svg">
<g style="mix-blend-mode:luminosity">
<g clip-path="url(#clip0_455_1984)">
<path d="M42 21.5C42 9.90078 32.5992 0.5 21 0.5C9.40078 0.5 0 9.90078 0 21.5C0 31.9836 7.67812 40.6707 17.7188 42.2457V27.5703H12.3867V21.5H17.7188V16.8734C17.7188 11.6111 20.8523 8.70312 25.6512 8.70312C27.948 8.70312 30.3516 9.11328 30.3516 9.11328V14.2812H27.702C25.0934 14.2812 24.2812 15.9014 24.2812 17.5625V21.5H30.1055L29.1744 27.5703H24.2812V42.2457C34.3219 40.6707 42 31.9836 42 21.5Z" fill="#1877F2"/>
<path d="M29.1744 27.5703L30.1055 21.5H24.2812V17.5625C24.2812 15.9014 25.0934 14.2812 27.702 14.2812H30.3516V9.11328C30.3516 9.11328 27.948 8.70312 25.6512 8.70312C20.8523 8.70312 17.7188 11.6111 17.7188 16.8734V21.5H12.3867V27.5703H17.7188V42.2457C18.7893 42.4139 19.8844 42.5 21 42.5C22.1156 42.5 23.2107 42.4139 24.2812 42.2457V27.5703H29.1744Z" fill="white"/>
</g>
</g>
<defs>
<clipPath id="clip0_455_1984">
<rect width="42" height="42" fill="white" transform="translate(0 0.5)"/>
</clipPath>
</defs>
</svg>
