<svg width="42" height="43" viewBox="0 0 42 43" fill="none" xmlns="http://www.w3.org/2000/svg">
<g style="mix-blend-mode:luminosity">
<path d="M0 21.5C0 9.90202 9.40202 0.5 21 0.5C32.598 0.5 42 9.90202 42 21.5C42 33.098 32.598 42.5 21 42.5C9.40202 42.5 0 33.098 0 21.5Z" fill="white"/>
<mask id="mask0_455_1983" style="mask-type:luminance" maskUnits="userSpaceOnUse" x="0" y="0" width="42" height="43">
<path fill-rule="evenodd" clip-rule="evenodd" d="M0 21.5C0 9.90202 9.40202 0.5 21 0.5C32.598 0.5 42 9.90202 42 21.5C42 33.098 32.598 42.5 21 42.5C9.40202 42.5 0 33.098 0 21.5Z" fill="white"/>
</mask>
<g mask="url(#mask0_455_1983)">
<path fill-rule="evenodd" clip-rule="evenodd" d="M21.001 10.3C17.9592 10.3 17.5775 10.3133 16.3828 10.3677C15.1904 10.4223 14.3766 10.6111 13.6644 10.8881C12.9278 11.1741 12.3029 11.5568 11.6804 12.1796C11.0574 12.8021 10.6747 13.427 10.3877 14.1634C10.11 14.8758 9.92103 15.6899 9.86736 16.8818C9.81393 18.0764 9.79993 18.4584 9.79993 21.5002C9.79993 24.5419 9.81346 24.9225 9.86759 26.1172C9.92243 27.3095 10.1112 28.1234 10.3879 28.8355C10.6742 29.5722 11.0569 30.1971 11.6797 30.8196C12.302 31.4426 12.9269 31.8262 13.663 32.1123C14.3756 32.3892 15.1897 32.578 16.3819 32.6326C17.5765 32.687 17.958 32.7003 20.9996 32.7003C24.0416 32.7003 24.4221 32.687 25.6168 32.6326C26.8092 32.578 27.624 32.3892 28.3366 32.1123C29.073 31.8262 29.6969 31.4426 30.3192 30.8196C30.9422 30.1971 31.3249 29.5722 31.6119 28.8358C31.8873 28.1234 32.0763 27.3093 32.1323 26.1174C32.1859 24.9227 32.1999 24.5419 32.1999 21.5002C32.1999 18.4584 32.1859 18.0767 32.1323 16.882C32.0763 15.6896 31.8873 14.8758 31.6119 14.1636C31.3249 13.427 30.9422 12.8021 30.3192 12.1796C29.6962 11.5566 29.0732 11.1739 28.3359 10.8881C27.6219 10.6111 26.8075 10.4223 25.6152 10.3677C24.4205 10.3133 24.0402 10.3 20.9975 10.3H21.001ZM19.9962 12.3183C20.1913 12.318 20.4012 12.3181 20.6277 12.3182L21.001 12.3183C23.9914 12.3183 24.3459 12.329 25.5268 12.3827C26.6188 12.4326 27.2115 12.6151 27.6063 12.7684C28.1289 12.9714 28.5016 13.2141 28.8933 13.6061C29.2853 13.9981 29.528 14.3714 29.7315 14.8941C29.8848 15.2884 30.0675 15.8811 30.1172 16.9731C30.1709 18.1538 30.1825 18.5085 30.1825 21.4975C30.1825 24.4865 30.1709 24.8412 30.1172 26.0219C30.0673 27.1139 29.8848 27.7066 29.7315 28.1009C29.5285 28.6236 29.2853 28.9957 28.8933 29.3875C28.5013 29.7795 28.1292 30.0222 27.6063 30.2252C27.2119 30.3792 26.6188 30.5612 25.5268 30.6111C24.3461 30.6648 23.9914 30.6764 21.001 30.6764C18.0103 30.6764 17.6559 30.6648 16.4752 30.6111C15.3832 30.5607 14.7905 30.3782 14.3955 30.2249C13.8728 30.0219 13.4995 29.7793 13.1075 29.3873C12.7155 28.9953 12.4728 28.6229 12.2693 28.1C12.116 27.7056 11.9333 27.1129 11.8836 26.0209C11.83 24.8403 11.8192 24.4856 11.8192 21.4947C11.8192 18.5038 11.83 18.151 11.8836 16.9703C11.9336 15.8783 12.116 15.2856 12.2693 14.8908C12.4723 14.3681 12.7155 13.9948 13.1075 13.6028C13.4995 13.2108 13.8728 12.9681 14.3955 12.7647C14.7903 12.6107 15.3832 12.4287 16.4752 12.3785C17.5084 12.3318 17.9088 12.3178 19.9962 12.3155V12.3183ZM25.6355 15.5214C25.6355 14.7792 26.2375 14.1779 26.9795 14.1779V14.1774C27.7215 14.1774 28.3235 14.7794 28.3235 15.5214C28.3235 16.2635 27.7215 16.8655 26.9795 16.8655C26.2375 16.8655 25.6355 16.2635 25.6355 15.5214ZM21.0008 15.7484C17.8245 15.7485 15.2493 18.3238 15.2493 21.5001C15.2493 24.6765 17.8246 27.2507 21.001 27.2507C24.1774 27.2507 26.7518 24.6765 26.7518 21.5001C26.7518 18.3237 24.1772 15.7484 21.0008 15.7484ZM24.7344 21.5001C24.7344 19.4381 23.0628 17.7667 21.0011 17.7667C18.9391 17.7667 17.2677 19.4381 17.2677 21.5001C17.2677 23.5619 18.9391 25.2335 21.0011 25.2335C23.0628 25.2335 24.7344 23.5619 24.7344 21.5001Z" fill="black"/>
</g>
</g>
</svg>
