<svg width="42" height="43" viewBox="0 0 42 43" fill="none" xmlns="http://www.w3.org/2000/svg">
<g style="mix-blend-mode:luminosity">
<path d="M21 42.5C32.598 42.5 42 33.098 42 21.5C42 9.90202 32.598 0.5 21 0.5C9.40202 0.5 0 9.90202 0 21.5C0 33.098 9.40202 42.5 21 42.5Z" fill="url(#paint0_linear_455_1982)"/>
<path d="M7.82092 22.527C10.2758 21.1749 13.0161 20.0462 15.5766 18.9119C19.9815 17.0539 24.4039 15.2281 28.871 13.5284C29.7401 13.2388 31.3017 12.9556 31.4548 14.2435C31.371 16.0667 31.026 17.8792 30.7895 19.6916C30.189 23.6774 29.4949 27.6496 28.8181 31.6223C28.5849 32.9456 26.9272 33.6306 25.8666 32.7837C23.3175 31.062 20.7489 29.3569 18.2324 27.5951C17.408 26.7575 18.1724 25.5546 18.9086 24.9565C21.0081 22.8875 23.2346 21.1296 25.2244 18.9536C25.7611 17.6576 24.1753 18.7498 23.6522 19.0846C20.778 21.0652 17.9741 23.1668 14.9438 24.9075C13.3959 25.7596 11.5919 25.0314 10.0447 24.556C8.65748 23.9816 6.62466 23.4029 7.82078 22.5272L7.82092 22.527Z" fill="white"/>
</g>
<defs>
<linearGradient id="paint0_linear_455_1982" x1="28.0017" y1="7.5014" x2="17.5017" y2="32" gradientUnits="userSpaceOnUse">
<stop stop-color="#37AEE2"/>
<stop offset="1" stop-color="#1E96C8"/>
</linearGradient>
</defs>
</svg>
