<svg width="42" height="43" viewBox="0 0 42 43" fill="none" xmlns="http://www.w3.org/2000/svg">
<g style="mix-blend-mode:luminosity">
<path d="M0 21.5C0 9.90202 9.40202 0.5 21 0.5C32.598 0.5 42 9.90202 42 21.5C42 33.098 32.598 42.5 21 42.5C9.40202 42.5 0 33.098 0 21.5Z" fill="#FF0000"/>
<path d="M31.7318 16.3141C31.4742 15.3245 30.7152 14.5452 29.7513 14.2807C28.0046 13.8 20.9999 13.8 20.9999 13.8C20.9999 13.8 13.9952 13.8 12.2484 14.2807C11.2846 14.5452 10.5255 15.3245 10.2679 16.3141C9.79993 18.1077 9.79993 21.85 9.79993 21.85C9.79993 21.85 9.79993 25.5923 10.2679 27.386C10.5255 28.3756 11.2846 29.1549 12.2484 29.4195C13.9952 29.9 20.9999 29.9 20.9999 29.9C20.9999 29.9 28.0046 29.9 29.7513 29.4195C30.7152 29.1549 31.4742 28.3756 31.7318 27.386C32.1999 25.5923 32.1999 21.85 32.1999 21.85C32.1999 21.85 32.1999 18.1077 31.7318 16.3141" fill="white"/>
<path d="M18.9 25.7V18.7L24.5 22.2001L18.9 25.7Z" fill="#FF0000"/>
</g>
</svg>
