<svg width="139" height="139" viewBox="0 0 139 139" fill="none" xmlns="http://www.w3.org/2000/svg">
<mask id="mask0_455_2026" style="mask-type:alpha" maskUnits="userSpaceOnUse" x="0" y="0" width="139" height="139">
<rect x="0.0561523" y="0.242676" width="138.167" height="138.167" fill="#D9D9D9"/>
</mask>
<g mask="url(#mask0_455_2026)">
<path d="M102.552 118.305L64.8436 80.5307C62.7039 81.519 60.5206 82.2976 58.2936 82.8666C56.0666 83.4346 53.7034 83.7186 51.2039 83.7186C42.4092 83.7186 34.9333 80.6401 28.7762 74.483C22.6192 68.3269 19.5406 60.851 19.5406 52.0553C19.5406 49.5607 19.8175 47.16 20.3711 44.8534C20.9247 42.5468 21.7331 40.3347 22.7962 38.2171L43.1442 58.3434L57.4934 43.9956L37.5873 23.8679C39.7058 22.8057 41.8848 21.9609 44.1243 21.3333C46.3637 20.7058 48.7236 20.3921 51.2039 20.3921C59.9996 20.3921 67.4759 23.4706 73.633 29.6277C79.7891 35.7838 82.8672 43.2597 82.8672 52.0553C82.8672 54.7055 82.6019 57.143 82.0713 59.3681C81.5397 61.5932 80.7424 63.7021 79.6792 65.695L117.454 103.403C118.31 104.285 118.739 105.35 118.739 106.6C118.739 107.849 118.318 108.893 117.478 109.733L108.661 118.551C107.822 119.391 106.807 119.773 105.619 119.7C104.431 119.626 103.408 119.161 102.552 118.305ZM105.729 113.268L112.383 106.614L72.5493 66.7802C74.0547 64.7134 75.1912 62.4087 75.9588 59.8661C76.7264 57.3234 77.1102 54.7199 77.1102 52.0553C77.1102 45.0434 74.3963 38.7568 68.9684 33.1956C63.5396 27.6343 56.5775 25.3815 48.0822 26.4369L62.3868 40.74C63.3165 41.6708 63.7814 42.7559 63.7814 43.9956C63.7814 45.2353 63.3165 46.3205 62.3868 47.2512L46.3997 63.2368C45.47 64.1665 44.3848 64.6314 43.1442 64.6314C41.9045 64.6314 40.8198 64.1665 39.89 63.2368L25.5855 48.9336C24.7517 58.2407 27.1523 65.4052 32.7874 70.4272C38.4225 75.4502 44.5613 77.9616 51.2039 77.9616C53.7485 77.9616 56.2926 77.5961 58.8362 76.8649C61.3798 76.1348 63.733 74.991 65.8957 73.4338L105.729 113.268Z" fill="white"/>
</g>
</svg>
