<svg width="139" height="139" viewBox="0 0 139 139" fill="none" xmlns="http://www.w3.org/2000/svg">
<mask id="mask0_455_2014" style="mask-type:alpha" maskUnits="userSpaceOnUse" x="0" y="0" width="139" height="139">
<rect x="0.776978" y="0.242676" width="138.167" height="138.167" fill="#D9D9D9"/>
</mask>
<g mask="url(#mask0_455_2014)">
<path d="M64.5468 115.382C56.3537 115.382 49.4343 112.448 43.7886 106.581C38.142 100.712 35.3187 93.6453 35.3187 85.3793V59.0297L55.8005 79.9548L51.8369 83.9516L41.0757 72.7471V85.3793C41.0757 92.0075 43.3487 97.7054 47.8948 102.473C52.4418 107.241 57.9925 109.625 64.5468 109.625C71.1001 109.625 76.6503 107.241 81.1973 102.473C85.7434 97.7054 88.0165 92.0075 88.0165 85.3793V65.9942C84.9317 65.3149 82.389 63.7701 80.3885 61.3598C78.3889 58.9506 77.3891 56.144 77.3891 52.9403C77.3891 49.7375 78.3707 46.9128 80.3338 44.4661C82.2969 42.0194 84.8578 40.4563 88.0165 39.777V17.5134H93.7734V39.777C96.933 40.4563 99.4944 42.0194 101.457 44.4661C103.421 46.9128 104.402 49.7375 104.402 52.9403C104.402 56.144 103.421 58.9563 101.457 61.3771C99.4944 63.7979 96.933 65.3369 93.7734 65.9942V85.3793C93.7734 93.6453 90.9506 100.712 85.3049 106.581C79.6583 112.448 72.7389 115.382 64.5468 115.382ZM90.8949 60.6906C93.0432 60.6906 94.872 59.936 96.3813 58.4267C97.8906 56.9174 98.6452 55.0886 98.6452 52.9403C98.6452 50.7929 97.8906 48.9646 96.3813 47.4554C94.872 45.9461 93.0432 45.1914 90.8949 45.1914C88.7476 45.1914 86.9193 45.9461 85.41 47.4554C83.9007 48.9646 83.1461 50.7929 83.1461 52.9403C83.1461 55.0886 83.9007 56.9174 85.41 58.4267C86.9193 59.936 88.7476 60.6906 90.8949 60.6906Z" fill="white"/>
</g>
</svg>
