<svg width="139" height="139" viewBox="0 0 139 139" fill="none" xmlns="http://www.w3.org/2000/svg">
<mask id="mask0_455_2008" style="mask-type:alpha" maskUnits="userSpaceOnUse" x="0" y="0" width="139" height="139">
<rect x="0.637421" y="0.242676" width="138.167" height="138.167" fill="#D9D9D9"/>
</mask>
<g mask="url(#mask0_455_2008)">
<path d="M92.7488 62.2407C93.9366 62.2407 94.9719 61.7998 95.8547 60.918C96.7364 60.0353 97.1773 59 97.1773 57.8121C97.1773 56.6243 96.7364 55.589 95.8547 54.7062C94.9719 53.8245 93.9366 53.3836 92.7488 53.3836C91.5609 53.3836 90.5256 53.8245 89.6429 54.7062C88.7611 55.589 88.3202 56.6243 88.3202 57.8121C88.3202 59 88.7611 60.0353 89.6429 60.918C90.5256 61.7998 91.5609 62.2407 92.7488 62.2407ZM46.6931 49.1767H75.4779V43.4197H46.6931V49.1767ZM30.8615 115.382C28.0425 105.329 25.1789 95.3561 22.2707 85.4628C19.3625 75.5685 17.9084 65.3921 17.9084 54.9336C17.9084 47.7298 20.4251 41.6111 25.4586 36.5776C30.4921 31.5441 36.6108 29.0273 43.8147 29.0273H75.4779C77.9649 25.7507 80.9043 23.0123 84.2961 20.8122C87.6879 18.613 91.465 17.5134 95.6273 17.5134C96.4025 17.5134 97.0761 17.7994 97.6479 18.3712C98.2198 18.9431 98.5057 19.6166 98.5057 20.3919C98.5057 20.5982 98.4707 20.805 98.4007 21.0122C98.3306 21.2185 98.2735 21.4138 98.2294 21.598C97.5501 23.3184 97.0056 25.0809 96.5959 26.8857C96.1862 28.6896 95.8115 30.4997 95.4718 32.316L112.334 49.1767H121.534V79.3676L106.377 84.3603L97.0665 115.382H75.4779V103.868H52.4501V115.382H30.8615ZM35.1792 109.625H46.6931V98.1108H81.2349V109.625H92.7488L101.672 79.9764L115.777 75.2269V54.9336H110.02L89.8703 34.7843C89.8703 32.8653 89.9902 31.0183 90.2301 29.2432C90.47 27.4682 90.9037 25.7061 91.5312 23.9569C88.7486 24.7245 86.3389 26.0807 84.3019 28.0256C82.2649 29.9705 80.6189 32.2234 79.3639 34.7843H43.8147C38.2496 34.7843 33.5001 36.7513 29.5662 40.6852C25.6323 44.6191 23.6653 49.3686 23.6653 54.9336C23.6653 64.3367 24.9606 73.5238 27.5513 82.4951C30.1419 91.4663 32.6845 100.51 35.1792 109.625Z" fill="white"/>
</g>
</svg>
