<svg width="139" height="139" viewBox="0 0 139 139" fill="none" xmlns="http://www.w3.org/2000/svg">
<mask id="mask0_455_2032" style="mask-type:alpha" maskUnits="userSpaceOnUse" x="0" y="0" width="139" height="139">
<rect x="0.195801" y="0.242676" width="138.167" height="138.167" fill="#D9D9D9"/>
</mask>
<g mask="url(#mask0_455_2032)">
<path d="M62.1277 87.7039C63.9133 89.4905 66.2051 90.3041 69.0029 90.1449C71.7999 89.9865 73.8407 88.981 75.1255 87.1282L105.371 44.97L62.9912 74.994C61.0646 76.2788 59.9923 78.2716 59.7745 80.9726C59.5567 83.6745 60.3411 85.9183 62.1277 87.7039ZM69.2793 29.0276C74.5709 29.0276 79.3885 29.6714 83.7321 30.959C88.0757 32.2476 92.403 34.2165 96.714 36.8657L91.422 40.4523C88.034 38.6004 84.5261 37.1929 80.8982 36.2295C77.2704 35.2662 73.3974 34.7845 69.2793 34.7845C56.518 34.7845 45.6518 39.2702 36.6805 48.2414C27.7093 57.2127 23.2236 68.0789 23.2236 80.8402C23.2236 84.87 23.7753 88.8519 24.8788 92.7859C25.9822 96.7198 27.5413 100.414 29.5563 103.868H109.002C111.209 100.222 112.816 96.4319 113.824 92.498C114.831 88.5641 115.335 84.4863 115.335 80.2645C115.335 76.8103 114.89 73.1753 114.001 69.3594C113.111 65.5435 111.703 61.9895 109.777 58.6975L113.365 53.4054C116.169 58.2106 118.152 62.7317 119.314 66.9688C120.477 71.205 121.07 75.6148 121.092 80.1983C121.114 85.1502 120.564 89.7707 119.442 94.0596C118.321 98.3476 116.575 102.672 114.205 107.034C113.741 107.802 113.04 108.426 112.102 108.905C111.165 109.385 110.132 109.625 109.002 109.625H29.5563C28.5008 109.625 27.5231 109.367 26.6231 108.851C25.7221 108.333 24.9656 107.58 24.3534 106.591C22.4488 103.233 20.8249 99.4447 19.4816 95.2268C18.1383 91.0089 17.4667 86.2133 17.4667 80.8402C17.4667 73.762 18.809 67.082 21.4937 60.8002C24.1783 54.5175 27.8426 49.0148 32.4866 44.2922C37.1315 39.5705 42.6241 35.8457 48.9644 33.1179C55.3038 30.391 62.0754 29.0276 69.2793 29.0276Z" fill="white"/>
</g>
</svg>
