<svg width="140" height="139" viewBox="0 0 140 139" fill="none" xmlns="http://www.w3.org/2000/svg">
<mask id="mask0_455_2020" style="mask-type:alpha" maskUnits="userSpaceOnUse" x="0" y="0" width="140" height="139">
<rect x="0.916504" y="0.242676" width="138.167" height="138.167" fill="#D9D9D9"/>
</mask>
<g mask="url(#mask0_455_2020)">
<path d="M58.0544 76.6777L62.5376 61.8204L50.7358 53.1619H65.4837L70 38.1492L74.5164 53.1619H89.2642L77.4294 61.8204L81.9126 76.6777L70 67.455L58.0544 76.6777ZM41.2153 123.795V85.8557C37.5692 82.2681 34.7387 78.0684 32.7238 73.2566C30.7088 68.4438 29.7014 63.2956 29.7014 57.8121C29.7014 46.5784 33.6094 37.0535 41.4254 29.2375C49.2414 21.4214 58.7663 17.5134 70 17.5134C81.2338 17.5134 90.7587 21.4214 98.5747 29.2375C106.391 37.0535 110.299 46.5784 110.299 57.8121C110.299 63.2956 109.291 68.4438 107.276 73.2566C105.261 78.0684 102.431 82.2681 98.7848 85.8557V123.795L70 115.16L41.2153 123.795ZM70 92.3538C79.595 92.3538 87.7506 88.9956 94.4671 82.2792C101.184 75.5627 104.542 67.407 104.542 57.8121C104.542 48.2172 101.184 40.0615 94.4671 33.3451C87.7506 26.6286 79.595 23.2704 70 23.2704C60.4051 23.2704 52.2494 26.6286 45.533 33.3451C38.8165 40.0615 35.4583 48.2172 35.4583 57.8121C35.4583 67.407 38.8165 75.5627 45.533 82.2792C52.2494 88.9956 60.4051 92.3538 70 92.3538ZM46.9722 115.636L70 109.181L93.0279 115.636V90.7045C89.8174 93.0658 86.2505 94.8907 82.3271 96.1793C78.4047 97.467 74.2957 98.1108 70 98.1108C65.7044 98.1108 61.5954 97.467 57.673 96.1793C53.7496 94.8907 50.1827 93.0658 46.9722 90.7045V115.636Z" fill="white"/>
</g>
</svg>
